# Blender v2.93.4 OBJ File: ''
# www.blender.org
mtllib obamium2.mtl
o obamium_ref.001
v -5.000000 -0.000001 5.000000
v 0.000000 -0.000001 5.000000
v -2.500000 5.000000 2.500001
v 0.000000 0.000000 0.000000
v -5.000000 0.000000 0.000000
vt 0.002002 0.498999
vt 0.498999 0.498999
vt 0.498999 0.002002
vt 0.002002 0.998999
vt 0.498999 0.998999
vt 0.498999 0.502002
vt 0.497998 0.501001
vt 0.001001 0.501001
vt 0.001001 0.997998
vt 0.497998 0.001001
vt 0.001001 0.001001
vt 0.001001 0.497998
vt 0.998999 0.498999
vt 0.502002 0.498999
vt 0.998999 0.002002
vt 0.501001 0.497998
vt 0.997998 0.001001
vt 0.501001 0.001001
vn 0.0000 0.4472 0.8944
vn 0.8944 0.4472 0.0000
vn -0.8944 0.4472 0.0000
vn 0.0000 0.4472 -0.8944
vn 0.0000 -1.0000 -0.0000
usemtl Default_OBJ
s 1
f 1/1/1 2/2/1 3/3/1
f 2/4/2 4/5/2 3/6/2
f 5/7/3 1/8/3 3/9/3
f 4/10/4 5/11/4 3/12/4
f 4/13/5 2/14/5 5/15/5
f 5/16/5 2/17/5 1/18/5
